<?xml version="1.0" encoding="UTF-8"?>
<svg xmlns="http://www.w3.org/2000/svg" xmlns:xlink="http://www.w3.org/1999/xlink" width="100px" height="38px" viewBox="0 0 100 38" version="1.1">
<g id="surface1">
<path style=" stroke:none;fill-rule:nonzero;fill:rgb(22.745098%,67.45098%,34.901961%);fill-opacity:1;" d="M 59.917969 12.300781 L 68.582031 12.300781 L 68.582031 37.417969 L 59.917969 37.417969 Z M 59.917969 12.300781 "/>
<path style=" stroke:none;fill-rule:nonzero;fill:rgb(22.745098%,67.45098%,34.901961%);fill-opacity:1;" d="M 48.019531 10.414062 C 44.6875 10.414062 41.277344 11.203125 40.429688 12.675781 C 40.417969 12.695312 40.40625 12.710938 40.398438 12.730469 L 40.398438 2.195312 L 31.496094 2.195312 L 31.496094 18.9375 C 32.382812 19.339844 33.292969 19.800781 34.210938 20.320312 C 34.519531 20.496094 34.78125 20.648438 34.976562 20.765625 C 35.097656 20.839844 35.21875 20.910156 35.339844 20.984375 C 35.355469 20.992188 30.253906 28.863281 23.3125 30.519531 C 19.207031 31.496094 14.363281 30.3125 13.378906 26.230469 C 13.339844 26.0625 13.316406 25.894531 13.289062 25.722656 C 13.945312 25.335938 14.613281 24.984375 15.285156 24.65625 C 16.984375 23.921875 18.28125 23.371094 18.773438 23.183594 C 18.816406 23.167969 18.859375 23.152344 18.902344 23.136719 C 18.902344 23.136719 18.90625 23.136719 18.90625 23.136719 C 18.90625 23.136719 18.90625 23.136719 18.90625 23.132812 C 22.957031 21.675781 26.359375 21.175781 26.359375 21.175781 C 23.269531 20.910156 20.617188 21.125 18.398438 21.558594 C 18.398438 21.558594 18.394531 21.558594 18.394531 21.558594 C 18.394531 21.558594 18.378906 21.5625 18.351562 21.570312 C 16.339844 21.96875 14.6875 22.546875 13.402344 23.128906 C 14.117188 20.1875 16.699219 17.632812 19.753906 16.90625 C 20.023438 16.839844 20.292969 16.792969 20.566406 16.75 C 20.644531 16.738281 20.722656 16.726562 20.804688 16.714844 C 21.015625 16.6875 21.226562 16.664062 21.441406 16.648438 C 21.511719 16.644531 21.582031 16.636719 21.648438 16.632812 C 21.921875 16.613281 22.199219 16.605469 22.472656 16.605469 C 22.527344 16.609375 22.582031 16.609375 22.636719 16.609375 C 22.867188 16.613281 23.09375 16.621094 23.324219 16.636719 C 23.40625 16.640625 23.484375 16.648438 23.566406 16.652344 C 23.648438 16.660156 23.726562 16.667969 23.808594 16.675781 C 25.121094 16.808594 26.738281 17.160156 28.53125 17.761719 L 28.53125 11.984375 C 27.664062 11.71875 26.75 11.464844 25.796875 11.230469 C 23.285156 10.566406 18.976562 9.863281 14.265625 11 C 6.683594 12.832031 4.535156 18.390625 4.535156 25.183594 C 4.535156 26.050781 4.605469 26.859375 4.730469 27.621094 C 3.085938 28.703125 1.46875 29.945312 0 31.359375 C 0 31.359375 2.1875 30.394531 5.074219 29.121094 C 7 35.648438 13.726562 37.84375 18.789062 37.84375 C 24.070312 37.84375 27.460938 36.347656 31.496094 33.847656 L 31.496094 37.011719 L 40.398438 37.011719 L 40.398438 21.316406 C 40.40625 21.296875 40.417969 21.277344 40.429688 21.253906 L 40.429688 20.988281 C 41.277344 18.746094 42.71875 18.167969 44.316406 18.167969 C 46.433594 18.167969 47.753906 19.65625 47.753906 22.023438 L 47.753906 37.011719 L 56.652344 37.011719 L 56.652344 19.480469 C 56.652344 13.960938 53.171875 10.414062 48.019531 10.414062 Z M 48.019531 10.414062 "/>
<path style=" stroke:none;fill-rule:nonzero;fill:rgb(22.745098%,67.45098%,34.901961%);fill-opacity:1;" d="M 64.109375 0 C 61.421875 0 59.527344 1.882812 59.527344 4.554688 C 59.527344 7.226562 61.421875 9.113281 64.109375 9.113281 C 66.796875 9.113281 68.691406 7.226562 68.691406 4.554688 C 68.691406 1.882812 66.796875 0 64.109375 0 Z M 64.109375 0 "/>
<path style=" stroke:none;fill-rule:nonzero;fill:rgb(22.745098%,67.45098%,34.901961%);fill-opacity:1;" d="M 98.175781 22.789062 L 98.1875 22.789062 L 98.179688 11.601562 L 89.269531 11.601562 L 89.21875 13.191406 C 80.628906 7.703125 75.140625 13.347656 75.140625 13.347656 C 72.515625 15.730469 70.996094 19.492188 70.996094 24.214844 C 70.996094 32.585938 76.054688 37.566406 82.636719 37.566406 C 85.101562 37.566406 87.371094 37.011719 89.335938 34.316406 C 89.5625 34.945312 90.066406 36.484375 90.429688 37.011719 L 99.703125 37.011719 C 98.113281 34.417969 98.125 25.425781 98.175781 22.789062 Z M 84.710938 30.3125 C 81.828125 30.3125 79.792969 27.824219 79.792969 24.292969 C 79.792969 20.757812 81.828125 18.269531 84.710938 18.269531 C 86.734375 18.269531 88.339844 19.492188 89.117188 21.445312 L 89.117188 27.136719 C 88.339844 29.089844 86.734375 30.3125 84.710938 30.3125 Z M 84.710938 30.3125 "/>
</g>
</svg>
